<svg id="visual" viewBox="0 0 900 600" width="900" height="600" xmlns="http://www.w3.org/2000/svg" xmlns:xlink="http://www.w3.org/1999/xlink" version="1.1"><rect x="0" y="0" width="900" height="600" fill="#001122"></rect><defs><linearGradient id="grad1_0" x1="33.3%" y1="0%" x2="100%" y2="100%"><stop offset="20%" stop-color="#001122" stop-opacity="1"></stop><stop offset="80%" stop-color="#001122" stop-opacity="1"></stop></linearGradient></defs><defs><linearGradient id="grad2_0" x1="0%" y1="0%" x2="66.7%" y2="100%"><stop offset="20%" stop-color="#001122" stop-opacity="1"></stop><stop offset="80%" stop-color="#001122" stop-opacity="1"></stop></linearGradient></defs><g transform="translate(900, 0)"><path d="M0 324.5C-32.9 308.5 -65.9 292.5 -87.1 268.2C-108.4 243.9 -118 211.2 -143.4 197.4C-168.8 183.6 -210 188.5 -241.9 175.7C-273.8 163 -296.4 132.5 -308.6 100.3C-320.8 68 -322.7 34 -324.5 0L0 0Z" fill="#F7770F"></path></g><g transform="translate(0, 600)"><path d="M0 -324.5C38.3 -327.4 76.5 -330.4 100.3 -308.6C124 -286.9 133.2 -240.4 157.5 -216.8C181.8 -193.2 221.2 -192.4 238.7 -173.4C256.2 -154.4 251.8 -117.2 262.5 -85.3C273.2 -53.4 298.8 -26.7 324.5 0L0 0Z" fill="#F7770F"></path></g></svg>