<svg id="visual" viewBox="0 0 900 600" width="900" height="600" xmlns="http://www.w3.org/2000/svg" xmlns:xlink="http://www.w3.org/1999/xlink" version="1.1"><rect width="900" height="600" fill="#001122"></rect><g><g transform="translate(373 468)"><path d="M51 -57.9C66.7 -47.5 80.7 -32.1 82.3 -15.6C84 0.9 73.2 18.5 62.8 36C52.3 53.6 42.3 71.1 26.5 79.9C10.7 88.8 -10.9 89 -27.5 80.7C-44.2 72.5 -55.9 55.7 -65.8 38.2C-75.7 20.6 -83.8 2.2 -81.9 -15.5C-80.1 -33.2 -68.2 -50.2 -52.9 -60.7C-37.5 -71.2 -18.8 -75.4 -0.6 -74.6C17.6 -73.9 35.2 -68.4 51 -57.9Z" stroke="#F7770F" fill="none" stroke-width="20"></path></g><g transform="translate(495 127)"><path d="M47.3 -53.2C60.3 -45.5 69 -29.6 69.8 -14C70.5 1.7 63.4 17.1 54 29.1C44.6 41.1 32.9 49.7 18.9 57.1C4.8 64.5 -11.6 70.7 -27.5 68.1C-43.5 65.6 -59.1 54.3 -64.4 39.8C-69.6 25.2 -64.6 7.4 -58.4 -7.2C-52.2 -21.9 -44.8 -33.2 -34.9 -41.4C-25 -49.6 -12.5 -54.6 2.4 -57.4C17.2 -60.2 34.4 -60.8 47.3 -53.2Z" stroke="#F7770F" fill="none" stroke-width="20"></path></g><g transform="translate(188 231)"><path d="M41.7 -51.1C51.4 -41.5 55 -25.9 58.4 -9.8C61.7 6.2 64.9 22.8 58.7 34.3C52.6 45.9 37 52.5 21.1 58.5C5.2 64.6 -11.2 70.1 -25.7 66.6C-40.2 63 -52.9 50.4 -59 35.9C-65.1 21.5 -64.6 5.1 -61.3 -10.3C-58 -25.7 -51.8 -40.1 -41.1 -49.5C-30.5 -59 -15.2 -63.6 0.4 -64C15.9 -64.4 31.9 -60.7 41.7 -51.1Z" stroke="#F7770F" fill="none" stroke-width="20"></path></g><g transform="translate(287 36)"><path d="M37.9 -44.4C48.9 -35.8 57.7 -23.8 61.5 -9.7C65.3 4.4 64.3 20.4 56.7 32C49.2 43.6 35.1 50.8 21.1 54.4C7 58 -7.1 58.1 -21.7 54.9C-36.3 51.6 -51.4 45 -56.7 33.7C-62.1 22.4 -57.7 6.5 -54.6 -9.4C-51.5 -25.3 -49.7 -41.2 -40.8 -50.1C-31.9 -59 -16 -60.9 -1.3 -59.4C13.4 -57.9 26.8 -52.9 37.9 -44.4Z" stroke="#F7770F" fill="none" stroke-width="20"></path></g><g transform="translate(870 207)"><path d="M44.8 -51.3C56.5 -43.6 63.3 -28 65.7 -11.9C68.1 4.1 66.1 20.6 58.2 33C50.3 45.5 36.5 53.9 21.4 59.9C6.3 65.9 -10.2 69.5 -25.7 65.9C-41.3 62.3 -55.9 51.5 -63.5 37.2C-71.1 22.9 -71.7 5.1 -66.4 -9.5C-61.2 -24.1 -50.2 -35.4 -38.2 -43C-26.1 -50.6 -13.1 -54.5 1.8 -56.6C16.6 -58.7 33.2 -59 44.8 -51.3Z" stroke="#F7770F" fill="none" stroke-width="20"></path></g><g transform="translate(767 482)"><path d="M42.7 -49.5C54.9 -40.8 63.8 -26.8 67.4 -11.2C71 4.4 69.2 21.7 60.5 33.3C51.9 45 36.3 51.1 21.1 55.5C5.9 60 -9 62.9 -21.9 58.8C-34.7 54.7 -45.5 43.6 -53 30.6C-60.5 17.6 -64.7 2.7 -63.4 -12.3C-62.1 -27.4 -55.4 -42.7 -43.9 -51.5C-32.4 -60.4 -16.2 -62.9 -0.4 -62.4C15.3 -61.8 30.6 -58.3 42.7 -49.5Z" stroke="#F7770F" fill="none" stroke-width="20"></path></g><g transform="translate(139 573)"><path d="M53 -65.1C63.5 -54.3 63.4 -32.7 63 -14.2C62.5 4.3 61.8 19.8 55.5 33.2C49.2 46.6 37.2 58 22.6 64.2C8 70.5 -9.3 71.6 -25.9 67.2C-42.5 62.9 -58.5 52.9 -64.5 38.9C-70.6 25 -66.7 6.9 -64.5 -12.4C-62.2 -31.7 -61.7 -52.3 -51.3 -63.1C-40.8 -74 -20.4 -75 0.4 -75.5C21.2 -76 42.4 -75.9 53 -65.1Z" stroke="#F7770F" fill="none" stroke-width="20"></path></g><g transform="translate(577 320)"><path d="M49.9 -58.9C60.2 -50.7 61.2 -30.9 62.2 -12.8C63.3 5.3 64.3 21.5 59 37.2C53.7 52.9 42 68 27.7 71C13.4 74 -3.5 64.9 -19.6 57.5C-35.7 50 -51 44.2 -61 32.5C-71 20.8 -75.6 3.3 -73.8 -14C-71.9 -31.4 -63.6 -48.6 -50.2 -56.2C-36.8 -63.9 -18.4 -61.9 0.7 -62.7C19.8 -63.5 39.5 -67.1 49.9 -58.9Z" stroke="#F7770F" fill="none" stroke-width="20"></path></g><g transform="translate(21 373)"><path d="M53.9 -63.6C67.6 -52.8 74.8 -33.6 74.3 -16.1C73.7 1.3 65.4 17.1 56.9 33.8C48.4 50.5 39.8 68.2 26.7 72.6C13.6 77.1 -4.1 68.4 -20.1 60.3C-36.1 52.3 -50.4 44.8 -57.7 33C-65 21.1 -65.1 4.8 -64.8 -13.9C-64.5 -32.6 -63.7 -53.8 -52.8 -65.1C-41.9 -76.5 -20.9 -78.1 -0.4 -77.6C20.1 -77.1 40.2 -74.5 53.9 -63.6Z" stroke="#F7770F" fill="none" stroke-width="20"></path></g><g transform="translate(4 41)"><path d="M47.3 -53.2C60.4 -45.4 69.5 -29.6 71.8 -13.1C74.1 3.3 69.6 20.5 61.1 35.3C52.6 50.1 39.9 62.6 25.8 65.2C11.7 67.9 -3.9 60.7 -18.7 54.1C-33.5 47.5 -47.6 41.5 -53.8 31C-60.1 20.4 -58.5 5.2 -56.4 -10.4C-54.2 -26 -51.4 -42 -41.9 -50.4C-32.4 -58.9 -16.2 -59.9 0.4 -60.4C17.1 -61 34.2 -61 47.3 -53.2Z" stroke="#F7770F" fill="none" stroke-width="20"></path></g><g transform="translate(690 11)"><path d="M46.1 -53.6C57.7 -45.3 63.4 -28.8 62.9 -13.7C62.4 1.3 55.6 14.7 47.5 26.2C39.5 37.7 30.1 47.2 17.6 54.3C5.2 61.4 -10.3 66 -23.3 62.1C-36.4 58.2 -47 45.7 -55.6 31.7C-64.2 17.6 -70.8 2 -70.4 -14.6C-70.1 -31.2 -62.9 -48.7 -50 -56.7C-37.1 -64.7 -18.5 -63.2 -0.6 -62.5C17.3 -61.7 34.6 -61.8 46.1 -53.6Z" stroke="#F7770F" fill="none" stroke-width="20"></path></g><g transform="translate(553 580)"><path d="M46.2 -57.2C58.2 -45 65 -28.8 70 -10.8C75 7.2 78.2 27.1 71.6 44C65 60.9 48.6 74.8 31.6 76.6C14.5 78.4 -3.3 68.2 -21.3 60.7C-39.3 53.2 -57.4 48.4 -68.9 36.1C-80.4 23.8 -85.1 4 -79.2 -11.3C-73.3 -26.5 -56.7 -37.2 -41.8 -48.8C-26.8 -60.5 -13.4 -73.1 1.9 -75.3C17.1 -77.5 34.3 -69.4 46.2 -57.2Z" stroke="#F7770F" fill="none" stroke-width="20"></path></g></g></svg>