<svg id="visual" viewBox="0 0 900 600" width="900" height="600" xmlns="http://www.w3.org/2000/svg" xmlns:xlink="http://www.w3.org/1999/xlink" version="1.1"><rect x="0" y="0" width="900" height="600" fill="#FCAF3C"></rect><defs><linearGradient id="grad1_0" x1="33.3%" y1="0%" x2="100%" y2="100%"><stop offset="20%" stop-color="#f7770f" stop-opacity="1"></stop><stop offset="80%" stop-color="#f7770f" stop-opacity="1"></stop></linearGradient></defs><defs><linearGradient id="grad1_1" x1="33.3%" y1="0%" x2="100%" y2="100%"><stop offset="20%" stop-color="#f7770f" stop-opacity="1"></stop><stop offset="80%" stop-color="#f88014" stop-opacity="1"></stop></linearGradient></defs><defs><linearGradient id="grad1_2" x1="33.3%" y1="0%" x2="100%" y2="100%"><stop offset="20%" stop-color="#f9881a" stop-opacity="1"></stop><stop offset="80%" stop-color="#f88014" stop-opacity="1"></stop></linearGradient></defs><defs><linearGradient id="grad1_3" x1="33.3%" y1="0%" x2="100%" y2="100%"><stop offset="20%" stop-color="#f9881a" stop-opacity="1"></stop><stop offset="80%" stop-color="#f99021" stop-opacity="1"></stop></linearGradient></defs><defs><linearGradient id="grad1_4" x1="33.3%" y1="0%" x2="100%" y2="100%"><stop offset="20%" stop-color="#fa9827" stop-opacity="1"></stop><stop offset="80%" stop-color="#f99021" stop-opacity="1"></stop></linearGradient></defs><defs><linearGradient id="grad1_5" x1="33.3%" y1="0%" x2="100%" y2="100%"><stop offset="20%" stop-color="#fa9827" stop-opacity="1"></stop><stop offset="80%" stop-color="#fba02e" stop-opacity="1"></stop></linearGradient></defs><defs><linearGradient id="grad1_6" x1="33.3%" y1="0%" x2="100%" y2="100%"><stop offset="20%" stop-color="#fba835" stop-opacity="1"></stop><stop offset="80%" stop-color="#fba02e" stop-opacity="1"></stop></linearGradient></defs><defs><linearGradient id="grad1_7" x1="33.3%" y1="0%" x2="100%" y2="100%"><stop offset="20%" stop-color="#fba835" stop-opacity="1"></stop><stop offset="80%" stop-color="#fcaf3c" stop-opacity="1"></stop></linearGradient></defs><defs><linearGradient id="grad2_0" x1="0%" y1="0%" x2="66.7%" y2="100%"><stop offset="20%" stop-color="#f7770f" stop-opacity="1"></stop><stop offset="80%" stop-color="#f7770f" stop-opacity="1"></stop></linearGradient></defs><defs><linearGradient id="grad2_1" x1="0%" y1="0%" x2="66.7%" y2="100%"><stop offset="20%" stop-color="#f88014" stop-opacity="1"></stop><stop offset="80%" stop-color="#f7770f" stop-opacity="1"></stop></linearGradient></defs><defs><linearGradient id="grad2_2" x1="0%" y1="0%" x2="66.7%" y2="100%"><stop offset="20%" stop-color="#f88014" stop-opacity="1"></stop><stop offset="80%" stop-color="#f9881a" stop-opacity="1"></stop></linearGradient></defs><defs><linearGradient id="grad2_3" x1="0%" y1="0%" x2="66.7%" y2="100%"><stop offset="20%" stop-color="#f99021" stop-opacity="1"></stop><stop offset="80%" stop-color="#f9881a" stop-opacity="1"></stop></linearGradient></defs><defs><linearGradient id="grad2_4" x1="0%" y1="0%" x2="66.7%" y2="100%"><stop offset="20%" stop-color="#f99021" stop-opacity="1"></stop><stop offset="80%" stop-color="#fa9827" stop-opacity="1"></stop></linearGradient></defs><defs><linearGradient id="grad2_5" x1="0%" y1="0%" x2="66.7%" y2="100%"><stop offset="20%" stop-color="#fba02e" stop-opacity="1"></stop><stop offset="80%" stop-color="#fa9827" stop-opacity="1"></stop></linearGradient></defs><defs><linearGradient id="grad2_6" x1="0%" y1="0%" x2="66.7%" y2="100%"><stop offset="20%" stop-color="#fba02e" stop-opacity="1"></stop><stop offset="80%" stop-color="#fba835" stop-opacity="1"></stop></linearGradient></defs><defs><linearGradient id="grad2_7" x1="0%" y1="0%" x2="66.7%" y2="100%"><stop offset="20%" stop-color="#fcaf3c" stop-opacity="1"></stop><stop offset="80%" stop-color="#fba835" stop-opacity="1"></stop></linearGradient></defs><g transform="translate(900, 0)"><path d="M0 405.6C-37.6 377.3 -75.2 348.9 -106.3 327.2C-137.4 305.4 -162.1 290.3 -204 280.7C-245.9 271.2 -305 267.2 -328.2 238.4C-351.3 209.6 -338.3 156 -345.2 112.2C-352.1 68.3 -378.9 34.2 -405.6 0L0 0Z" fill="#fcab38"></path><path d="M0 354.9C-32.9 330.1 -65.8 305.3 -93 286.3C-120.2 267.2 -141.8 254 -178.5 245.6C-215.1 237.3 -266.9 233.8 -287.1 208.6C-307.4 183.4 -296 136.5 -302.1 98.2C-308.1 59.8 -331.5 29.9 -354.9 0L0 0Z" fill="#fba431"></path><path d="M0 304.2C-28.2 283 -56.4 261.7 -79.7 245.4C-103.1 229.1 -121.5 217.7 -153 210.5C-184.4 203.4 -228.8 200.4 -246.1 178.8C-263.5 157.2 -253.7 117 -258.9 84.1C-264.1 51.2 -284.2 25.6 -304.2 0L0 0Z" fill="#fa9c2a"></path><path d="M0 253.5C-23.5 235.8 -47 218.1 -66.4 204.5C-85.9 190.9 -101.3 181.4 -127.5 175.5C-153.7 169.5 -190.7 167 -205.1 149C-219.5 131 -211.5 97.5 -215.8 70.1C-220.1 42.7 -236.8 21.3 -253.5 0L0 0Z" fill="#fa9424"></path><path d="M0 202.8C-18.8 188.6 -37.6 174.5 -53.2 163.6C-68.7 152.7 -81 145.1 -102 140.4C-122.9 135.6 -152.5 133.6 -164.1 119.2C-175.6 104.8 -169.2 78 -172.6 56.1C-176.1 34.2 -189.4 17.1 -202.8 0L0 0Z" fill="#f98c1d"></path><path d="M0 152.1C-14.1 141.5 -28.2 130.8 -39.9 122.7C-51.5 114.5 -60.8 108.9 -76.5 105.3C-92.2 101.7 -114.4 100.2 -123.1 89.4C-131.7 78.6 -126.9 58.5 -129.5 42.1C-132.1 25.6 -142.1 12.8 -152.1 0L0 0Z" fill="#f88417"></path><path d="M0 101.4C-9.4 94.3 -18.8 87.2 -26.6 81.8C-34.4 76.4 -40.5 72.6 -51 70.2C-61.5 67.8 -76.3 66.8 -82 59.6C-87.8 52.4 -84.6 39 -86.3 28C-88 17.1 -94.7 8.5 -101.4 0L0 0Z" fill="#f77b12"></path><path d="M0 50.7C-4.7 47.2 -9.4 43.6 -13.3 40.9C-17.2 38.2 -20.3 36.3 -25.5 35.1C-30.7 33.9 -38.1 33.4 -41 29.8C-43.9 26.2 -42.3 19.5 -43.2 14C-44 8.5 -47.4 4.3 -50.7 0L0 0Z" fill="#f7770f"></path></g><g transform="translate(0, 600)"><path d="M0 -405.6C49 -411.6 98 -417.7 125.3 -385.8C152.6 -353.9 158.2 -284 182.2 -250.8C206.2 -217.6 248.6 -220.9 282.3 -205.1C316.1 -189.4 341.3 -154.5 360.5 -117.1C379.6 -79.7 392.6 -39.9 405.6 0L0 0Z" fill="#fcab38"></path><path d="M0 -354.9C42.9 -360.2 85.8 -365.5 109.7 -337.6C133.6 -309.6 138.5 -248.5 159.4 -219.4C180.4 -190.4 217.5 -193.3 247.1 -179.5C276.6 -165.7 298.7 -135.2 315.4 -102.5C332.1 -69.8 343.5 -34.9 354.9 0L0 0Z" fill="#fba431"></path><path d="M0 -304.2C36.8 -308.7 73.5 -313.3 94 -289.3C114.5 -265.4 118.7 -213 136.7 -188.1C154.6 -163.2 186.4 -165.7 211.8 -153.9C237.1 -142 256 -115.9 270.3 -87.8C284.7 -59.8 294.4 -29.9 304.2 0L0 0Z" fill="#fa9c2a"></path><path d="M0 -253.5C30.6 -257.3 61.3 -261 78.3 -241.1C95.4 -221.2 98.9 -177.5 113.9 -156.7C128.9 -136 155.4 -138.1 176.5 -128.2C197.6 -118.4 213.3 -96.6 225.3 -73.2C237.2 -49.8 245.4 -24.9 253.5 0L0 0Z" fill="#fa9424"></path><path d="M0 -202.8C24.5 -205.8 49 -208.8 62.7 -192.9C76.3 -176.9 79.1 -142 91.1 -125.4C103.1 -108.8 124.3 -110.5 141.2 -102.6C158.1 -94.7 170.7 -77.2 180.2 -58.6C189.8 -39.9 196.3 -19.9 202.8 0L0 0Z" fill="#f98c1d"></path><path d="M0 -152.1C18.4 -154.4 36.8 -156.6 47 -144.7C57.2 -132.7 59.3 -106.5 68.3 -94C77.3 -81.6 93.2 -82.8 105.9 -76.9C118.5 -71 128 -57.9 135.2 -43.9C142.3 -29.9 147.2 -15 152.1 0L0 0Z" fill="#f88417"></path><path d="M0 -101.4C12.3 -102.9 24.5 -104.4 31.3 -96.4C38.2 -88.5 39.6 -71 45.6 -62.7C51.5 -54.4 62.1 -55.2 70.6 -51.3C79 -47.3 85.3 -38.6 90.1 -29.3C94.9 -19.9 98.1 -10 101.4 0L0 0Z" fill="#f77b12"></path><path d="M0 -50.7C6.1 -51.5 12.3 -52.2 15.7 -48.2C19.1 -44.2 19.8 -35.5 22.8 -31.3C25.8 -27.2 31.1 -27.6 35.3 -25.6C39.5 -23.7 42.7 -19.3 45.1 -14.6C47.4 -10 49.1 -5 50.7 0L0 0Z" fill="#f7770f"></path></g></svg>