<svg id="visual" viewBox="0 0 900 100" width="900" height="100" xmlns="http://www.w3.org/2000/svg" xmlns:xlink="http://www.w3.org/1999/xlink" version="1.1"><path d="M0 16L39 18L78 30L117 23L157 11L196 32L235 28L274 20L313 22L352 27L391 23L430 16L470 33L509 20L548 28L587 15L626 33L665 33L704 16L743 31L783 28L822 25L861 16L900 26L900 101L861 101L822 101L783 101L743 101L704 101L665 101L626 101L587 101L548 101L509 101L470 101L430 101L391 101L352 101L313 101L274 101L235 101L196 101L157 101L117 101L78 101L39 101L0 101Z" fill="#f5730a"></path><path d="M0 48L39 46L78 47L117 41L157 37L196 37L235 31L274 30L313 41L352 37L391 33L430 50L470 43L509 38L548 43L587 41L626 37L665 37L704 30L743 40L783 47L822 40L861 43L900 45L900 101L861 101L822 101L783 101L743 101L704 101L665 101L626 101L587 101L548 101L509 101L470 101L430 101L391 101L352 101L313 101L274 101L235 101L196 101L157 101L117 101L78 101L39 101L0 101Z" fill="#d15308"></path><path d="M0 55L39 63L78 69L117 63L157 65L196 55L235 54L274 70L313 67L352 61L391 51L430 65L470 55L509 54L548 70L587 62L626 59L665 55L704 68L743 69L783 67L822 55L861 51L900 62L900 101L861 101L822 101L783 101L743 101L704 101L665 101L626 101L587 101L548 101L509 101L470 101L430 101L391 101L352 101L313 101L274 101L235 101L196 101L157 101L117 101L78 101L39 101L0 101Z" fill="#ac3505"></path><path d="M0 70L39 87L78 75L117 71L157 76L196 82L235 73L274 84L313 87L352 89L391 72L430 75L470 80L509 82L548 81L587 88L626 73L665 82L704 86L743 76L783 73L822 84L861 74L900 75L900 101L861 101L822 101L783 101L743 101L704 101L665 101L626 101L587 101L548 101L509 101L470 101L430 101L391 101L352 101L313 101L274 101L235 101L196 101L157 101L117 101L78 101L39 101L0 101Z" fill="#871400"></path></svg>