<svg id="visual" viewBox="0 0 900 80" width="900" height="80" xmlns="http://www.w3.org/2000/svg" xmlns:xlink="http://www.w3.org/1999/xlink" version="1.1"><path d="M0 69L60 69L60 36L120 36L120 37L180 37L180 48L240 48L240 58L300 58L300 69L360 69L360 64L420 64L420 67L480 67L480 44L540 44L540 65L600 65L600 32L660 32L660 50L720 50L720 46L780 46L780 41L840 41L840 75L900 75L900 49L900 0L900 0L840 0L840 0L780 0L780 0L720 0L720 0L660 0L660 0L600 0L600 0L540 0L540 0L480 0L480 0L420 0L420 0L360 0L360 0L300 0L300 0L240 0L240 0L180 0L180 0L120 0L120 0L60 0L60 0L0 0Z" fill="#f5730a"></path><path d="M0 43L60 43L60 33L120 33L120 51L180 51L180 48L240 48L240 23L300 23L300 29L360 29L360 37L420 37L420 31L480 31L480 28L540 28L540 46L600 46L600 48L660 48L660 33L720 33L720 29L780 29L780 39L840 39L840 49L900 49L900 23L900 0L900 0L840 0L840 0L780 0L780 0L720 0L720 0L660 0L660 0L600 0L600 0L540 0L540 0L480 0L480 0L420 0L420 0L360 0L360 0L300 0L300 0L240 0L240 0L180 0L180 0L120 0L120 0L60 0L60 0L0 0Z" fill="#d15308"></path><path d="M0 12L60 12L60 38L120 38L120 34L180 34L180 40L240 40L240 32L300 32L300 12L360 12L360 19L420 19L420 34L480 34L480 27L540 27L540 30L600 30L600 31L660 31L660 37L720 37L720 27L780 27L780 24L840 24L840 13L900 13L900 22L900 0L900 0L840 0L840 0L780 0L780 0L720 0L720 0L660 0L660 0L600 0L600 0L540 0L540 0L480 0L480 0L420 0L420 0L360 0L360 0L300 0L300 0L240 0L240 0L180 0L180 0L120 0L120 0L60 0L60 0L0 0Z" fill="#ac3505"></path><path d="M0 5L60 5L60 15L120 15L120 11L180 11L180 18L240 18L240 3L300 3L300 5L360 5L360 17L420 17L420 19L480 19L480 6L540 6L540 13L600 13L600 4L660 4L660 12L720 12L720 22L780 22L780 17L840 17L840 3L900 3L900 23L900 0L900 0L840 0L840 0L780 0L780 0L720 0L720 0L660 0L660 0L600 0L600 0L540 0L540 0L480 0L480 0L420 0L420 0L360 0L360 0L300 0L300 0L240 0L240 0L180 0L180 0L120 0L120 0L60 0L60 0L0 0Z" fill="#871400"></path></svg>