<svg id="visual" viewBox="0 0 900 300" width="900" height="300" xmlns="http://www.w3.org/2000/svg" xmlns:xlink="http://www.w3.org/1999/xlink" version="1.1"><path d="M0 52L150 46L300 43L450 52L600 52L750 46L900 40L900 0L750 0L600 0L450 0L300 0L150 0L0 0Z" fill="#ff8206"></path><path d="M0 73L150 67L300 64L450 73L600 73L750 67L900 61L900 38L750 44L600 50L450 50L300 41L150 44L0 50Z" fill="#fe931c"></path><path d="M0 97L150 88L300 82L450 97L600 94L750 85L900 79L900 59L750 65L600 71L450 71L300 62L150 65L0 71Z" fill="#fda32e"></path><path d="M0 175L150 166L300 151L450 157L600 160L750 166L900 160L900 77L750 83L600 92L450 95L300 80L150 86L0 95Z" fill="#fcaf3c"></path><path d="M0 196L150 187L300 181L450 181L600 184L750 199L900 193L900 158L750 164L600 158L450 155L300 149L150 164L0 173Z" fill="#fcaf3c"></path><path d="M0 226L150 220L300 214L450 208L600 214L750 226L900 220L900 191L750 197L600 182L450 179L300 179L150 185L0 194Z" fill="#fda32e"></path><path d="M0 277L150 274L300 280L450 277L600 283L750 280L900 283L900 218L750 224L600 212L450 206L300 212L150 218L0 224Z" fill="#fe931c"></path><path d="M0 301L150 301L300 301L450 301L600 301L750 301L900 301L900 281L750 278L600 281L450 275L300 278L150 272L0 275Z" fill="#ff8206"></path></svg>