<svg id="visual" viewBox="0 0 900 600" width="900" height="600" xmlns="http://www.w3.org/2000/svg" xmlns:xlink="http://www.w3.org/1999/xlink" version="1.1"><path d="M0 103L16.7 94C33.3 85 66.7 67 100 66C133.3 65 166.7 81 200 84C233.3 87 266.7 77 300 70C333.3 63 366.7 59 400 63C433.3 67 466.7 79 500 88C533.3 97 566.7 103 600 96C633.3 89 666.7 69 700 67C733.3 65 766.7 81 800 89C833.3 97 866.7 97 883.3 97L900 97L900 0L883.3 0C866.7 0 833.3 0 800 0C766.7 0 733.3 0 700 0C666.7 0 633.3 0 600 0C566.7 0 533.3 0 500 0C466.7 0 433.3 0 400 0C366.7 0 333.3 0 300 0C266.7 0 233.3 0 200 0C166.7 0 133.3 0 100 0C66.7 0 33.3 0 16.7 0L0 0Z" fill="#f7770f"></path><path d="M0 241L16.7 245C33.3 249 66.7 257 100 250C133.3 243 166.7 221 200 208C233.3 195 266.7 191 300 198C333.3 205 366.7 223 400 228C433.3 233 466.7 225 500 232C533.3 239 566.7 261 600 254C633.3 247 666.7 211 700 205C733.3 199 766.7 223 800 233C833.3 243 866.7 239 883.3 237L900 235L900 95L883.3 95C866.7 95 833.3 95 800 87C766.7 79 733.3 63 700 65C666.7 67 633.3 87 600 94C566.7 101 533.3 95 500 86C466.7 77 433.3 65 400 61C366.7 57 333.3 61 300 68C266.7 75 233.3 85 200 82C166.7 79 133.3 63 100 64C66.7 65 33.3 83 16.7 92L0 101Z" fill="#f88218"></path><path d="M0 283L16.7 295C33.3 307 66.7 331 100 329C133.3 327 166.7 299 200 281C233.3 263 266.7 255 300 262C333.3 269 366.7 291 400 297C433.3 303 466.7 293 500 296C533.3 299 566.7 315 600 307C633.3 299 666.7 267 700 268C733.3 269 766.7 303 800 316C833.3 329 866.7 321 883.3 317L900 313L900 233L883.3 235C866.7 237 833.3 241 800 231C766.7 221 733.3 197 700 203C666.7 209 633.3 245 600 252C566.7 259 533.3 237 500 230C466.7 223 433.3 231 400 226C366.7 221 333.3 203 300 196C266.7 189 233.3 193 200 206C166.7 219 133.3 241 100 248C66.7 255 33.3 247 16.7 243L0 239Z" fill="#f98d21"></path><path d="M0 433L16.7 442C33.3 451 66.7 469 100 465C133.3 461 166.7 435 200 428C233.3 421 266.7 433 300 445C333.3 457 366.7 469 400 474C433.3 479 466.7 477 500 479C533.3 481 566.7 487 600 478C633.3 469 666.7 445 700 436C733.3 427 766.7 433 800 437C833.3 441 866.7 443 883.3 444L900 445L900 311L883.3 315C866.7 319 833.3 327 800 314C766.7 301 733.3 267 700 266C666.7 265 633.3 297 600 305C566.7 313 533.3 297 500 294C466.7 291 433.3 301 400 295C366.7 289 333.3 267 300 260C266.7 253 233.3 261 200 279C166.7 297 133.3 325 100 327C66.7 329 33.3 305 16.7 293L0 281Z" fill="#fa972a"></path><path d="M0 487L16.7 495C33.3 503 66.7 519 100 518C133.3 517 166.7 499 200 495C233.3 491 266.7 501 300 511C333.3 521 366.7 531 400 535C433.3 539 466.7 537 500 537C533.3 537 566.7 539 600 531C633.3 523 666.7 505 700 494C733.3 483 766.7 479 800 485C833.3 491 866.7 507 883.3 515L900 523L900 443L883.3 442C866.7 441 833.3 439 800 435C766.7 431 733.3 425 700 434C666.7 443 633.3 467 600 476C566.7 485 533.3 479 500 477C466.7 475 433.3 477 400 472C366.7 467 333.3 455 300 443C266.7 431 233.3 419 200 426C166.7 433 133.3 459 100 463C66.7 467 33.3 449 16.7 440L0 431Z" fill="#fba133"></path><path d="M0 601L16.7 601C33.3 601 66.7 601 100 601C133.3 601 166.7 601 200 601C233.3 601 266.7 601 300 601C333.3 601 366.7 601 400 601C433.3 601 466.7 601 500 601C533.3 601 566.7 601 600 601C633.3 601 666.7 601 700 601C733.3 601 766.7 601 800 601C833.3 601 866.7 601 883.3 601L900 601L900 521L883.3 513C866.7 505 833.3 489 800 483C766.7 477 733.3 481 700 492C666.7 503 633.3 521 600 529C566.7 537 533.3 535 500 535C466.7 535 433.3 537 400 533C366.7 529 333.3 519 300 509C266.7 499 233.3 489 200 493C166.7 497 133.3 515 100 516C66.7 517 33.3 501 16.7 493L0 485Z" fill="#fcab3d"></path></svg>