<svg id="visual" viewBox="0 0 960 540" width="960" height="540" xmlns="http://www.w3.org/2000/svg" xmlns:xlink="http://www.w3.org/1999/xlink" version="1.1"><g stroke-width="1" stroke-linejoin="bevel"><path d="M452 296L496 212L396 231Z" fill="#fe8d14" stroke="#fe8d14"></path><path d="M452 296L566 229L496 212Z" fill="#fe870e" stroke="#fe870e"></path><path d="M396 231L329 293L452 296Z" fill="#ff8206" stroke="#ff8206"></path><path d="M508 101L392 104L496 212Z" fill="#ff8206" stroke="#ff8206"></path><path d="M496 212L392 104L396 231Z" fill="#fe870e" stroke="#fe870e"></path><path d="M396 231L240 208L329 293Z" fill="#ff8206" stroke="#ff8206"></path><path d="M566 229L508 101L496 212Z" fill="#fcaa36" stroke="#fcaa36"></path><path d="M508 450L568 360L452 296Z" fill="#fcaa36" stroke="#fcaa36"></path><path d="M452 296L568 360L566 229Z" fill="#fd9720" stroke="#fd9720"></path><path d="M248 135L240 208L396 231Z" fill="#ff7c00" stroke="#ff7c00"></path><path d="M231 448L383 447L329 293Z" fill="#fcaa36" stroke="#fcaa36"></path><path d="M329 293L383 447L452 296Z" fill="#ff8206" stroke="#ff8206"></path><path d="M383 447L508 450L452 296Z" fill="#fd921a" stroke="#fd921a"></path><path d="M240 208L234 291L329 293Z" fill="#fd921a" stroke="#fd921a"></path><path d="M757 247L632 108L566 229Z" fill="#fcaf3c" stroke="#fcaf3c"></path><path d="M566 229L632 108L508 101Z" fill="#fe8d14" stroke="#fe8d14"></path><path d="M392 104L248 135L396 231Z" fill="#ff7c00" stroke="#ff7c00"></path><path d="M508 101L449 0L392 104Z" fill="#fcaf3c" stroke="#fcaf3c"></path><path d="M392 104L351 0L248 135Z" fill="#ff7c00" stroke="#ff7c00"></path><path d="M615 0L449 0L508 101Z" fill="#ff7c00" stroke="#ff7c00"></path><path d="M630 446L689 335L568 360Z" fill="#fcaa36" stroke="#fcaa36"></path><path d="M568 360L689 335L566 229Z" fill="#fe870e" stroke="#fe870e"></path><path d="M449 0L351 0L392 104Z" fill="#fcaf3c" stroke="#fcaf3c"></path><path d="M508 450L630 446L568 360Z" fill="#fd921a" stroke="#fd921a"></path><path d="M708 70L615 0L632 108Z" fill="#fda12b" stroke="#fda12b"></path><path d="M632 108L615 0L508 101Z" fill="#fcaf3c" stroke="#fcaf3c"></path><path d="M234 291L231 448L329 293Z" fill="#fda12b" stroke="#fda12b"></path><path d="M383 447L397 540L508 450Z" fill="#fe870e" stroke="#fe870e"></path><path d="M224 540L397 540L383 447Z" fill="#fca631" stroke="#fca631"></path><path d="M508 450L606 540L630 446Z" fill="#ff8206" stroke="#ff8206"></path><path d="M397 540L512 540L508 450Z" fill="#fcaf3c" stroke="#fcaf3c"></path><path d="M123 132L240 208L248 135Z" fill="#fd9c26" stroke="#fd9c26"></path><path d="M123 132L143 241L240 208Z" fill="#fe8d14" stroke="#fe8d14"></path><path d="M240 208L143 241L234 291Z" fill="#ff7c00" stroke="#ff7c00"></path><path d="M234 291L83 353L231 448Z" fill="#fd9c26" stroke="#fd9c26"></path><path d="M815 343L757 247L689 335Z" fill="#fd921a" stroke="#fd921a"></path><path d="M689 335L757 247L566 229Z" fill="#fcaf3c" stroke="#fcaf3c"></path><path d="M757 247L708 70L632 108Z" fill="#fcaf3c" stroke="#fcaf3c"></path><path d="M512 540L606 540L508 450Z" fill="#fda12b" stroke="#fda12b"></path><path d="M630 446L748 425L689 335Z" fill="#fda12b" stroke="#fda12b"></path><path d="M708 70L686 0L615 0Z" fill="#fda12b" stroke="#fda12b"></path><path d="M351 0L210 0L248 135Z" fill="#fd9720" stroke="#fd9720"></path><path d="M210 0L123 132L248 135Z" fill="#fd9720" stroke="#fd9720"></path><path d="M699 540L748 425L630 446Z" fill="#fd9c26" stroke="#fd9c26"></path><path d="M231 448L224 540L383 447Z" fill="#fcaa36" stroke="#fcaa36"></path><path d="M153 540L224 540L231 448Z" fill="#fcaa36" stroke="#fcaa36"></path><path d="M748 425L815 343L689 335Z" fill="#fd9720" stroke="#fd9720"></path><path d="M757 247L857 119L708 70Z" fill="#fd9c26" stroke="#fd9c26"></path><path d="M708 70L816 0L686 0Z" fill="#fe870e" stroke="#fe870e"></path><path d="M0 252L83 353L143 241Z" fill="#fca631" stroke="#fca631"></path><path d="M143 241L83 353L234 291Z" fill="#fcaa36" stroke="#fcaa36"></path><path d="M606 540L699 540L630 446Z" fill="#fd9c26" stroke="#fd9c26"></path><path d="M748 425L841 449L815 343Z" fill="#fd9c26" stroke="#fd9c26"></path><path d="M83 353L119 456L231 448Z" fill="#ff7c00" stroke="#ff7c00"></path><path d="M210 0L123 0L123 132Z" fill="#ff8206" stroke="#ff8206"></path><path d="M123 132L0 252L143 241Z" fill="#fca631" stroke="#fca631"></path><path d="M119 456L153 540L231 448Z" fill="#fd9c26" stroke="#fd9c26"></path><path d="M815 343L873 207L757 247Z" fill="#fe8d14" stroke="#fe8d14"></path><path d="M873 207L857 119L757 247Z" fill="#fe8d14" stroke="#fe8d14"></path><path d="M857 119L816 0L708 70Z" fill="#fcaf3c" stroke="#fcaf3c"></path><path d="M699 540L841 449L748 425Z" fill="#fcaf3c" stroke="#fcaf3c"></path><path d="M960 290L960 245L873 207Z" fill="#ff7c00" stroke="#ff7c00"></path><path d="M83 353L0 397L119 456Z" fill="#fd9720" stroke="#fd9720"></path><path d="M119 456L0 540L153 540Z" fill="#fcaa36" stroke="#fcaa36"></path><path d="M0 119L0 252L123 132Z" fill="#ff8206" stroke="#ff8206"></path><path d="M0 252L0 341L83 353Z" fill="#fe8d14" stroke="#fe8d14"></path><path d="M123 0L0 119L123 132Z" fill="#fd9c26" stroke="#fd9c26"></path><path d="M0 341L0 397L83 353Z" fill="#fd9c26" stroke="#fd9c26"></path><path d="M699 540L858 540L841 449Z" fill="#fd9c26" stroke="#fd9c26"></path><path d="M960 290L873 207L815 343Z" fill="#ff8206" stroke="#ff8206"></path><path d="M960 290L815 343L960 429Z" fill="#fd921a" stroke="#fd921a"></path><path d="M873 207L960 82L857 119Z" fill="#fd9720" stroke="#fd9720"></path><path d="M857 119L960 82L816 0Z" fill="#ff8206" stroke="#ff8206"></path><path d="M123 0L0 0L0 119Z" fill="#fd9c26" stroke="#fd9c26"></path><path d="M960 429L815 343L841 449Z" fill="#fe8d14" stroke="#fe8d14"></path><path d="M960 245L960 82L873 207Z" fill="#fcaa36" stroke="#fcaa36"></path><path d="M0 397L0 540L119 456Z" fill="#ff7c00" stroke="#ff7c00"></path><path d="M858 540L960 429L841 449Z" fill="#fda12b" stroke="#fda12b"></path><path d="M960 82L960 0L816 0Z" fill="#fd9720" stroke="#fd9720"></path><path d="M858 540L960 540L960 429Z" fill="#fd9c26" stroke="#fd9c26"></path></g></svg>