<svg id="visual" viewBox="0 0 900 100" width="900" height="100" xmlns="http://www.w3.org/2000/svg" xmlns:xlink="http://www.w3.org/1999/xlink" version="1.1"><path d="M0 68L75 74L150 79L225 52L300 63L375 75L450 61L525 64L600 77L675 53L750 69L825 63L900 71L900 0L825 0L750 0L675 0L600 0L525 0L450 0L375 0L300 0L225 0L150 0L75 0L0 0Z" fill="#fcaf3c"></path><path d="M0 41L75 61L150 48L225 61L300 50L375 59L450 53L525 42L600 49L675 43L750 58L825 48L900 46L900 0L825 0L750 0L675 0L600 0L525 0L450 0L375 0L300 0L225 0L150 0L75 0L0 0Z" fill="#e48f28"></path><path d="M0 27L75 29L150 40L225 45L300 27L375 46L450 27L525 44L600 38L675 30L750 25L825 27L900 28L900 0L825 0L750 0L675 0L600 0L525 0L450 0L375 0L300 0L225 0L150 0L75 0L0 0Z" fill="#cc7014"></path><path d="M0 18L75 20L150 11L225 18L300 14L375 21L450 17L525 20L600 23L675 12L750 27L825 28L900 13L900 0L825 0L750 0L675 0L600 0L525 0L450 0L375 0L300 0L225 0L150 0L75 0L0 0Z" fill="#b35100"></path></svg>