<svg id="visual" viewBox="0 0 900 100" width="900" height="100" xmlns="http://www.w3.org/2000/svg" xmlns:xlink="http://www.w3.org/1999/xlink" version="1.1"><path d="M0 82L39 80L78 68L117 75L157 87L196 66L235 70L274 78L313 76L352 71L391 75L430 82L470 65L509 78L548 70L587 83L626 65L665 65L704 82L743 67L783 70L822 73L861 82L900 72L900 0L861 0L822 0L783 0L743 0L704 0L665 0L626 0L587 0L548 0L509 0L470 0L430 0L391 0L352 0L313 0L274 0L235 0L196 0L157 0L117 0L78 0L39 0L0 0Z" fill="#f5730a"></path><path d="M0 50L39 52L78 51L117 57L157 61L196 61L235 67L274 68L313 57L352 61L391 65L430 48L470 55L509 60L548 55L587 57L626 61L665 61L704 68L743 58L783 51L822 58L861 55L900 53L900 0L861 0L822 0L783 0L743 0L704 0L665 0L626 0L587 0L548 0L509 0L470 0L430 0L391 0L352 0L313 0L274 0L235 0L196 0L157 0L117 0L78 0L39 0L0 0Z" fill="#d15308"></path><path d="M0 43L39 35L78 29L117 35L157 33L196 43L235 44L274 28L313 31L352 37L391 47L430 33L470 43L509 44L548 28L587 36L626 39L665 43L704 30L743 29L783 31L822 43L861 47L900 36L900 0L861 0L822 0L783 0L743 0L704 0L665 0L626 0L587 0L548 0L509 0L470 0L430 0L391 0L352 0L313 0L274 0L235 0L196 0L157 0L117 0L78 0L39 0L0 0Z" fill="#ac3505"></path><path d="M0 28L39 11L78 23L117 27L157 22L196 16L235 25L274 14L313 11L352 9L391 26L430 23L470 18L509 16L548 17L587 10L626 25L665 16L704 12L743 22L783 25L822 14L861 24L900 23L900 0L861 0L822 0L783 0L743 0L704 0L665 0L626 0L587 0L548 0L509 0L470 0L430 0L391 0L352 0L313 0L274 0L235 0L196 0L157 0L117 0L78 0L39 0L0 0Z" fill="#871400"></path></svg>