<svg id="visual" viewBox="0 0 960 100" width="960" height="100" xmlns="http://www.w3.org/2000/svg" xmlns:xlink="http://www.w3.org/1999/xlink" version="1.1"><rect x="0" y="0" width="960" height="100" fill="#4FACF7"></rect><path d="M0 32L42 22L83 31L125 26L167 25L209 20L250 21L292 24L334 32L376 25L417 26L459 31L501 31L543 27L584 27L626 19L668 30L710 23L751 32L793 26L835 20L877 31L918 18L960 32L960 101L918 101L877 101L835 101L793 101L751 101L710 101L668 101L626 101L584 101L543 101L501 101L459 101L417 101L376 101L334 101L292 101L250 101L209 101L167 101L125 101L83 101L42 101L0 101Z" fill="#fcaf3c"></path><path d="M0 48L42 50L83 41L125 45L167 49L209 45L250 47L292 47L334 46L376 37L417 46L459 48L501 36L543 39L584 47L626 49L668 37L710 45L751 47L793 42L835 36L877 44L918 41L960 40L960 101L918 101L877 101L835 101L793 101L751 101L710 101L668 101L626 101L584 101L543 101L501 101L459 101L417 101L376 101L334 101L292 101L250 101L209 101L167 101L125 101L83 101L42 101L0 101Z" fill="#e48f28"></path><path d="M0 63L42 64L83 56L125 57L167 61L209 66L250 61L292 66L334 55L376 61L417 67L459 67L501 56L543 61L584 57L626 63L668 67L710 63L751 56L793 60L835 57L877 56L918 62L960 61L960 101L918 101L877 101L835 101L793 101L751 101L710 101L668 101L626 101L584 101L543 101L501 101L459 101L417 101L376 101L334 101L292 101L250 101L209 101L167 101L125 101L83 101L42 101L0 101Z" fill="#cc7014"></path><path d="M0 79L42 83L83 78L125 84L167 82L209 75L250 79L292 74L334 74L376 85L417 82L459 75L501 73L543 73L584 81L626 82L668 79L710 85L751 79L793 74L835 81L877 82L918 73L960 76L960 101L918 101L877 101L835 101L793 101L751 101L710 101L668 101L626 101L584 101L543 101L501 101L459 101L417 101L376 101L334 101L292 101L250 101L209 101L167 101L125 101L83 101L42 101L0 101Z" fill="#b35100"></path></svg>