<svg id="visual" viewBox="0 0 960 540" width="960" height="540" xmlns="http://www.w3.org/2000/svg" xmlns:xlink="http://www.w3.org/1999/xlink" version="1.1"><g stroke-width="1" stroke-linejoin="bevel"><path d="M499.3 284L558.3 357L632 302Z" fill="#003372" stroke="#003372"></path><path d="M558.3 357L606 382L632 302Z" fill="#001f60" stroke="#001f60"></path><path d="M632 302L654 166L499.3 284Z" fill="#006599" stroke="#006599"></path><path d="M654 166L496.3 152L499.3 284Z" fill="#002969" stroke="#002969"></path><path d="M398.7 254L418.7 353L499.3 284Z" fill="#006599" stroke="#006599"></path><path d="M499.3 284L418.7 353L558.3 357Z" fill="#003372" stroke="#003372"></path><path d="M500.3 476L636 452L606 382Z" fill="#003d7b" stroke="#003d7b"></path><path d="M496.3 152L398.7 254L499.3 284Z" fill="#006599" stroke="#006599"></path><path d="M654 166L499.3 128L496.3 152Z" fill="#002969" stroke="#002969"></path><path d="M496.3 152L459.7 140L398.7 254Z" fill="#002969" stroke="#002969"></path><path d="M500.3 476L606 382L558.3 357Z" fill="#004783" stroke="#004783"></path><path d="M606 382L782.7 333L632 302Z" fill="#006fa0" stroke="#006fa0"></path><path d="M632 302L767.7 245L654 166Z" fill="#001556" stroke="#001556"></path><path d="M499.3 128L459.7 140L496.3 152Z" fill="#006fa0" stroke="#006fa0"></path><path d="M447.7 449L500.3 476L558.3 357Z" fill="#003d7b" stroke="#003d7b"></path><path d="M418.7 353L447.7 449L558.3 357Z" fill="#003372" stroke="#003372"></path><path d="M782.7 333L767.7 245L632 302Z" fill="#005b93" stroke="#005b93"></path><path d="M636 452L782.7 333L606 382Z" fill="#0179a6" stroke="#0179a6"></path><path d="M767.7 245L746.7 156L654 166Z" fill="#006599" stroke="#006599"></path><path d="M654 166L670 78L499.3 128Z" fill="#002969" stroke="#002969"></path><path d="M746.7 156L670 78L654 166Z" fill="#006599" stroke="#006599"></path><path d="M459.7 140L350 194L398.7 254Z" fill="#005b93" stroke="#005b93"></path><path d="M398.7 254L307 256L418.7 353Z" fill="#004783" stroke="#004783"></path><path d="M418.7 353L323 388L447.7 449Z" fill="#001556" stroke="#001556"></path><path d="M398.7 540L519.3 540L500.3 476Z" fill="#0179a6" stroke="#0179a6"></path><path d="M500.3 476L621 540L636 452Z" fill="#006fa0" stroke="#006fa0"></path><path d="M519.3 540L621 540L500.3 476Z" fill="#003d7b" stroke="#003d7b"></path><path d="M636 452L774.7 483L782.7 333Z" fill="#005b93" stroke="#005b93"></path><path d="M350 194L307 256L398.7 254Z" fill="#002969" stroke="#002969"></path><path d="M307 256L323 388L418.7 353Z" fill="#003372" stroke="#003372"></path><path d="M447.7 449L398.7 540L500.3 476Z" fill="#003d7b" stroke="#003d7b"></path><path d="M499.3 128L414.7 54L459.7 140Z" fill="#001556" stroke="#001556"></path><path d="M459.7 140L332 96L350 194Z" fill="#001556" stroke="#001556"></path><path d="M350 194L252.3 121L307 256Z" fill="#002969" stroke="#002969"></path><path d="M549.3 0L414.7 54L499.3 128Z" fill="#001556" stroke="#001556"></path><path d="M726.7 540L774.7 483L636 452Z" fill="#004783" stroke="#004783"></path><path d="M670 78L549.3 0L499.3 128Z" fill="#001556" stroke="#001556"></path><path d="M782.7 333L858.3 282L767.7 245Z" fill="#0179a6" stroke="#0179a6"></path><path d="M767.7 245L847.3 185L746.7 156Z" fill="#0179a6" stroke="#0179a6"></path><path d="M886.3 360L858.3 282L782.7 333Z" fill="#006599" stroke="#006599"></path><path d="M847.3 185L758.7 66L746.7 156Z" fill="#001f60" stroke="#001f60"></path><path d="M746.7 156L758.7 66L670 78Z" fill="#002969" stroke="#002969"></path><path d="M670 78L639 0L549.3 0Z" fill="#00518b" stroke="#00518b"></path><path d="M621 540L726.7 540L636 452Z" fill="#0179a6" stroke="#0179a6"></path><path d="M724.7 0L639 0L670 78Z" fill="#0179a6" stroke="#0179a6"></path><path d="M858.3 282L847.3 185L767.7 245Z" fill="#002969" stroke="#002969"></path><path d="M311 485L398.7 540L447.7 449Z" fill="#001f60" stroke="#001f60"></path><path d="M414.7 54L332 96L459.7 140Z" fill="#004783" stroke="#004783"></path><path d="M845.3 540L842.3 439L774.7 483Z" fill="#006fa0" stroke="#006fa0"></path><path d="M774.7 483L842.3 439L782.7 333Z" fill="#002969" stroke="#002969"></path><path d="M236.3 396L311 485L323 388Z" fill="#006fa0" stroke="#006fa0"></path><path d="M323 388L311 485L447.7 449Z" fill="#006599" stroke="#006599"></path><path d="M842.3 439L886.3 360L782.7 333Z" fill="#0179a6" stroke="#0179a6"></path><path d="M858.3 282L960 270L847.3 185Z" fill="#006599" stroke="#006599"></path><path d="M311 485L351 540L398.7 540Z" fill="#002969" stroke="#002969"></path><path d="M549.3 0L407.7 0L414.7 54Z" fill="#001556" stroke="#001556"></path><path d="M414.7 54L407.7 0L332 96Z" fill="#001f60" stroke="#001f60"></path><path d="M825.3 0L724.7 0L758.7 66Z" fill="#004783" stroke="#004783"></path><path d="M758.7 66L724.7 0L670 78Z" fill="#005b93" stroke="#005b93"></path><path d="M307 256L236.3 396L323 388Z" fill="#001f60" stroke="#001f60"></path><path d="M311 485L216.3 540L351 540Z" fill="#001556" stroke="#001556"></path><path d="M173.3 252L236.3 396L307 256Z" fill="#003d7b" stroke="#003d7b"></path><path d="M291 0L252.3 121L332 96Z" fill="#00518b" stroke="#00518b"></path><path d="M332 96L252.3 121L350 194Z" fill="#003d7b" stroke="#003d7b"></path><path d="M726.7 540L845.3 540L774.7 483Z" fill="#002969" stroke="#002969"></path><path d="M960 471L960 361L886.3 360Z" fill="#004783" stroke="#004783"></path><path d="M252.3 121L195.3 214L307 256Z" fill="#006599" stroke="#006599"></path><path d="M887.3 53L758.7 66L847.3 185Z" fill="#004783" stroke="#004783"></path><path d="M887.3 53L825.3 0L758.7 66Z" fill="#006fa0" stroke="#006fa0"></path><path d="M960 361L960 270L886.3 360Z" fill="#003372" stroke="#003372"></path><path d="M886.3 360L960 270L858.3 282Z" fill="#003d7b" stroke="#003d7b"></path><path d="M195.3 214L173.3 252L307 256Z" fill="#003372" stroke="#003372"></path><path d="M960 140L887.3 53L847.3 185Z" fill="#006fa0" stroke="#006fa0"></path><path d="M407.7 0L291 0L332 96Z" fill="#005b93" stroke="#005b93"></path><path d="M252.3 121L141.7 181L195.3 214Z" fill="#005b93" stroke="#005b93"></path><path d="M141.7 181L140.7 288L173.3 252Z" fill="#001f60" stroke="#001f60"></path><path d="M960 471L886.3 360L842.3 439Z" fill="#00518b" stroke="#00518b"></path><path d="M122.7 435L207.3 474L236.3 396Z" fill="#006fa0" stroke="#006fa0"></path><path d="M236.3 396L207.3 474L311 485Z" fill="#006599" stroke="#006599"></path><path d="M960 270L960 140L847.3 185Z" fill="#003372" stroke="#003372"></path><path d="M141.7 181L173.3 252L195.3 214Z" fill="#002969" stroke="#002969"></path><path d="M173.3 252L140.7 288L236.3 396Z" fill="#003372" stroke="#003372"></path><path d="M103.7 540L216.3 540L207.3 474Z" fill="#003372" stroke="#003372"></path><path d="M207.3 474L216.3 540L311 485Z" fill="#003d7b" stroke="#003d7b"></path><path d="M845.3 540L960 471L842.3 439Z" fill="#006fa0" stroke="#006fa0"></path><path d="M134.7 102L141.7 181L252.3 121Z" fill="#005b93" stroke="#005b93"></path><path d="M960 140L960 97L887.3 53Z" fill="#00518b" stroke="#00518b"></path><path d="M887.3 53L960 0L825.3 0Z" fill="#00518b" stroke="#00518b"></path><path d="M89.7 394L122.7 435L236.3 396Z" fill="#0179a6" stroke="#0179a6"></path><path d="M89.7 394L236.3 396L140.7 288Z" fill="#00518b" stroke="#00518b"></path><path d="M845.3 540L960 540L960 471Z" fill="#003d7b" stroke="#003d7b"></path><path d="M194.3 0L134.7 102L252.3 121Z" fill="#006599" stroke="#006599"></path><path d="M0 303L89.7 394L140.7 288Z" fill="#0179a6" stroke="#0179a6"></path><path d="M291 0L194.3 0L252.3 121Z" fill="#00518b" stroke="#00518b"></path><path d="M0 303L140.7 288L141.7 181Z" fill="#006fa0" stroke="#006fa0"></path><path d="M960 97L960 0L887.3 53Z" fill="#003372" stroke="#003372"></path><path d="M0 453L103.7 540L122.7 435Z" fill="#006599" stroke="#006599"></path><path d="M122.7 435L103.7 540L207.3 474Z" fill="#004783" stroke="#004783"></path><path d="M194.3 0L126.7 0L134.7 102Z" fill="#001f60" stroke="#001f60"></path><path d="M0 152L0 303L141.7 181Z" fill="#006fa0" stroke="#006fa0"></path><path d="M0 152L141.7 181L134.7 102Z" fill="#005b93" stroke="#005b93"></path><path d="M89.7 394L0 453L122.7 435Z" fill="#001f60" stroke="#001f60"></path><path d="M0 303L0 368L89.7 394Z" fill="#00518b" stroke="#00518b"></path><path d="M0 67L0 152L134.7 102Z" fill="#00518b" stroke="#00518b"></path><path d="M0 368L0 453L89.7 394Z" fill="#0179a6" stroke="#0179a6"></path><path d="M126.7 0L0 67L134.7 102Z" fill="#006599" stroke="#006599"></path><path d="M0 453L0 540L103.7 540Z" fill="#00518b" stroke="#00518b"></path><path d="M126.7 0L0 0L0 67Z" fill="#001556" stroke="#001556"></path></g></svg>