<svg id="visual" viewBox="0 0 900 600" width="900" height="600" xmlns="http://www.w3.org/2000/svg" xmlns:xlink="http://www.w3.org/1999/xlink" version="1.1"><rect width="900" height="600" fill="#001122"></rect><g><g transform="translate(865 534)"><path d="M0 -42.9L37.2 -21.5L37.2 21.5L0 42.9L-37.2 21.5L-37.2 -21.5Z" fill="none" stroke="#F7770F" stroke-width="5"></path></g><g transform="translate(253 258)"><path d="M0 -38L32.9 -19L32.9 19L0 38L-32.9 19L-32.9 -19Z" stroke="#F7770F" fill="none" stroke-width="5"></path></g><g transform="translate(250 67)"><path d="M0 -32L27.7 -16L27.7 16L0 32L-27.7 16L-27.7 -16Z" stroke="#F7770F" fill="none" stroke-width="5"></path></g><g transform="translate(82 204)"><path d="M0 -34L29.4 -17L29.4 17L0 34L-29.4 17L-29.4 -17Z" stroke="#F7770F" fill="none" stroke-width="5"></path></g><g transform="translate(620 481)"><path d="M0 -39L33.8 -19.5L33.8 19.5L0 39L-33.8 19.5L-33.8 -19.5Z" stroke="#F7770F" fill="none" stroke-width="5"></path></g><g transform="translate(215 585)"><path d="M0 -34L29.4 -17L29.4 17L0 34L-29.4 17L-29.4 -17Z" stroke="#F7770F" fill="none" stroke-width="5"></path></g><g transform="translate(465 396)"><path d="M0 -36L31.2 -18L31.2 18L0 36L-31.2 18L-31.2 -18Z" stroke="#F7770F" fill="none" stroke-width="5"></path></g><g transform="translate(695 356)"><path d="M0 -37L32 -18.5L32 18.5L0 37L-32 18.5L-32 -18.5Z" stroke="#F7770F" fill="none" stroke-width="5"></path></g><g transform="translate(377 488)"><path d="M0 -41L35.5 -20.5L35.5 20.5L0 41L-35.5 20.5L-35.5 -20.5Z" stroke="#F7770F" fill="none" stroke-width="5"></path></g><g transform="translate(880 76)"><path d="M0 -41L35.5 -20.5L35.5 20.5L0 41L-35.5 20.5L-35.5 -20.5Z" stroke="#F7770F" fill="none" stroke-width="5"></path></g><g transform="translate(127 511)"><path d="M0 -32L27.7 -16L27.7 16L0 32L-27.7 16L-27.7 -16Z" stroke="#F7770F" fill="none" stroke-width="5"></path></g><g transform="translate(405 9)"><path d="M0 -40L34.6 -20L34.6 20L0 40L-34.6 20L-34.6 -20Z" stroke="#F7770F" fill="none" stroke-width="5"></path></g><g transform="translate(552 252)"><path d="M0 -39L33.8 -19.5L33.8 19.5L0 39L-33.8 19.5L-33.8 -19.5Z" stroke="#F7770F" fill="none" stroke-width="5"></path></g><g transform="translate(331 111)"><path d="M0 -35L30.3 -17.5L30.3 17.5L0 35L-30.3 17.5L-30.3 -17.5Z" stroke="#F7770F" fill="none" stroke-width="5"></path></g><g transform="translate(414 275)"><path d="M0 -40L34.6 -20L34.6 20L0 40L-34.6 20L-34.6 -20Z" stroke="#F7770F" fill="none" stroke-width="5"></path></g><g transform="translate(761 8)"><path d="M0 -39L33.8 -19.5L33.8 19.5L0 39L-33.8 19.5L-33.8 -19.5Z" stroke="#F7770F" fill="none" stroke-width="5"></path></g><g transform="translate(5 328)"><path d="M0 -40L34.6 -20L34.6 20L0 40L-34.6 20L-34.6 -20Z" stroke="#F7770F" fill="none" stroke-width="5"></path></g><g transform="translate(629 166)"><path d="M0 -33L28.6 -16.5L28.6 16.5L0 33L-28.6 16.5L-28.6 -16.5Z" stroke="#F7770F" fill="none" stroke-width="5"></path></g><g transform="translate(752 598)"><path d="M0 -37L32 -18.5L32 18.5L0 37L-32 18.5L-32 -18.5Z" stroke="#F7770F" fill="none" stroke-width="5"></path></g><g transform="translate(618 15)"><path d="M0 -37L32 -18.5L32 18.5L0 37L-32 18.5L-32 -18.5Z" stroke="#F7770F" fill="none" stroke-width="5"></path></g><g transform="translate(188 433)"><path d="M0 -37L32 -18.5L32 18.5L0 37L-32 18.5L-32 -18.5Z" stroke="#F7770F" fill="none" stroke-width="5"></path></g><g transform="translate(856 349)"><path d="M0 -37L32 -18.5L32 18.5L0 37L-32 18.5L-32 -18.5Z" stroke="#F7770F" fill="none" stroke-width="5"></path></g><g transform="translate(319 556)"><path d="M0 -40L34.6 -20L34.6 20L0 40L-34.6 20L-34.6 -20Z" stroke="#F7770F" fill="none" stroke-width="5"></path></g><g transform="translate(24 67)"><path d="M0 -36L31.2 -18L31.2 18L0 36L-31.2 18L-31.2 -18Z" stroke="#F7770F" fill="none" stroke-width="5"></path></g><g transform="translate(346 355)"><path d="M0 -38L32.9 -19L32.9 19L0 38L-32.9 19L-32.9 -19Z" stroke="#F7770F" fill="none" stroke-width="5"></path></g><g transform="translate(467 117)"><path d="M0 -41L35.5 -20.5L35.5 20.5L0 41L-35.5 20.5L-35.5 -20.5Z" stroke="#F7770F" fill="none" stroke-width="5"></path></g><g transform="translate(833 250)"><path d="M0 -32L27.7 -16L27.7 16L0 32L-27.7 16L-27.7 -16Z" stroke="#F7770F" fill="none" stroke-width="5"></path></g><g transform="translate(542 358)"><path d="M0 -37L32 -18.5L32 18.5L0 37L-32 18.5L-32 -18.5Z" stroke="#F7770F" fill="none" stroke-width="5"></path></g><g transform="translate(125 281)"><path d="M0 -32L27.7 -16L27.7 16L0 32L-27.7 16L-27.7 -16Z" stroke="#F7770F" fill="none" stroke-width="5"></path></g><g transform="translate(754 441)"><path d="M0 -34L29.4 -17L29.4 17L0 34L-29.4 17L-29.4 -17Z" stroke="#F7770F" fill="none" stroke-width="5"></path></g><g transform="translate(634 585)"><path d="M0 -38L32.9 -19L32.9 19L0 38L-32.9 19L-32.9 -19Z" stroke="#F7770F" fill="none" stroke-width="5"></path></g><g transform="translate(116 57)"><path d="M0 -37L32 -18.5L32 18.5L0 37L-32 18.5L-32 -18.5Z" stroke="#F7770F" fill="none" stroke-width="5"></path></g><g transform="translate(73 584)"><path d="M0 -41L35.5 -20.5L35.5 20.5L0 41L-35.5 20.5L-35.5 -20.5Z" stroke="#F7770F" fill="none" stroke-width="5"></path></g><g transform="translate(728 251)"><path d="M0 -36L31.2 -18L31.2 18L0 36L-31.2 18L-31.2 -18Z" stroke="#F7770F" fill="none" stroke-width="5"></path></g><g transform="translate(502 498)"><path d="M0 -41L35.5 -20.5L35.5 20.5L0 41L-35.5 20.5L-35.5 -20.5Z" stroke="#F7770F" fill="none" stroke-width="5"></path></g><g transform="translate(733 107)"><path d="M0 -40L34.6 -20L34.6 20L0 40L-34.6 20L-34.6 -20Z" stroke="#F7770F" fill="none" stroke-width="5"></path></g></g></svg>